<svg width="1440" height="800" viewBox="0 0 1440 800" fill="none" xmlns="http://www.w3.org/2000/svg">
<g clip-path="url(#clip0_21_20)">
<rect width="1440" height="800" fill="#1D1C2F"/>
<g opacity="0.6">
<circle cx="83.3664" cy="303.188" r="12.6945" fill="white"/>
<circle cx="226.179" cy="407.918" r="4.76043" fill="white"/>
<circle cx="105.582" cy="163.549" r="4.76043" fill="white"/>
<circle cx="213.485" cy="230.195" r="7.93406" fill="white"/>
<circle cx="88.1267" cy="460.282" r="7.93406" fill="white"/>
<circle cx="104.556" cy="112.129" r="12.6945" fill="white"/>
<circle cx="301.321" cy="7.39981" r="12.6945" fill="white"/>
<circle cx="136.292" cy="-0.534243" r="4.76043" fill="white"/>
<circle cx="444.134" cy="112.129" r="4.76043" fill="white"/>
<circle cx="306.081" cy="164.494" r="7.93406" fill="white"/>
<circle cx="736.407" cy="238.824" r="12.6945" transform="rotate(141.038 736.407 238.824)" fill="white"/>
<circle cx="536.6" cy="133.067" r="12.6945" transform="rotate(141.038 536.6 133.067)" fill="white"/>
<circle cx="449.458" cy="338.228" r="12.6945" transform="rotate(141.038 449.458 338.228)" fill="white"/>
<circle cx="582.767" cy="240.626" r="4.76043" transform="rotate(141.038 582.767 240.626)" fill="white"/>
<circle cx="272.558" cy="346.596" r="4.76043" transform="rotate(141.038 272.558 346.596)" fill="white"/>
<circle cx="519.991" cy="460.775" r="4.76043" transform="rotate(141.038 519.991 460.775)" fill="white"/>
<circle cx="606.199" cy="360.448" r="7.93406" transform="rotate(141.038 606.199 360.448)" fill="white"/>
<circle cx="394.182" cy="476.804" r="7.93406" transform="rotate(141.038 394.182 476.804)" fill="white"/>
<circle cx="346.975" cy="219.071" r="7.93406" transform="rotate(141.038 346.975 219.071)" fill="white"/>
<circle cx="777.998" cy="305.487" r="7.54279" fill="white"/>
<circle cx="830.798" cy="429" r="7.54279" fill="white"/>
<circle cx="947.711" cy="366.772" r="7.54279" fill="white"/>
<circle cx="849.655" cy="362.058" r="2.82855" fill="white"/>
<circle cx="1032.57" cy="429" r="2.82855" fill="white"/>
<circle cx="960.911" cy="283.801" r="2.82855" fill="white"/>
<circle cx="883.598" cy="297.944" r="4.71424" fill="white"/>
<circle cx="1025.02" cy="323.401" r="4.71424" fill="white"/>
<circle cx="950.54" cy="460.114" r="4.71424" fill="white"/>
<circle cx="661.331" cy="-1.28189" r="11.4731" fill="white"/>
<circle cx="741.643" cy="186.59" r="11.4731" fill="white"/>
<circle cx="919.476" cy="91.9372" r="11.4731" fill="white"/>
<circle cx="770.325" cy="84.7665" r="4.30242" fill="white"/>
<circle cx="1048.55" cy="186.59" r="4.30242" fill="white"/>
<circle cx="1037.08" cy="25.9668" r="7.1707" fill="white"/>
<circle cx="923.779" cy="233.917" r="7.1707" fill="white"/>
<circle cx="480.069" cy="549.143" r="12.6945" fill="white"/>
<circle cx="568.931" cy="757.016" r="12.6945" fill="white"/>
<circle cx="765.695" cy="652.287" r="12.6945" fill="white"/>
<circle cx="600.667" cy="644.352" r="4.76043" fill="white"/>
<circle cx="908.508" cy="757.016" r="4.76043" fill="white"/>
<circle cx="787.911" cy="512.647" r="4.76043" fill="white"/>
<circle cx="657.792" cy="536.449" r="7.93406" fill="white"/>
<circle cx="895.814" cy="579.293" r="7.93406" fill="white"/>
<circle cx="1151.5" cy="475.196" r="12.6945" transform="rotate(-89.0363 1151.5 475.196)" fill="white"/>
<circle cx="1360.84" cy="389.843" r="12.6945" transform="rotate(-89.0363 1360.84 389.843)" fill="white"/>
<circle cx="1259.43" cy="191.345" r="12.6945" transform="rotate(-89.0363 1259.43 191.345)" fill="white"/>
<circle cx="1248.72" cy="356.217" r="4.76043" transform="rotate(-89.0363 1248.72 356.217)" fill="white"/>
<circle cx="1366.55" cy="50.3136" r="4.76043" transform="rotate(-89.0363 1366.55 50.3136)" fill="white"/>
<circle cx="1120.18" cy="166.784" r="4.76043" transform="rotate(-89.0363 1120.18 166.784)" fill="white"/>
<circle cx="1141.79" cy="297.284" r="7.93406" transform="rotate(-89.0363 1141.79 297.284)" fill="white"/>
<circle cx="1188.64" cy="60.0172" r="7.93406" transform="rotate(-89.0363 1188.64 60.0172)" fill="white"/>
<circle cx="1416.58" cy="189.228" r="7.93406" transform="rotate(-89.0363 1416.58 189.228)" fill="white"/>
<circle cx="13.5465" cy="736.387" r="12.6945" fill="white"/>
<circle cx="210.311" cy="631.658" r="12.6945" fill="white"/>
<circle cx="45.2829" cy="623.724" r="4.76043" fill="white"/>
<circle cx="353.124" cy="736.387" r="4.76043" fill="white"/>
<circle cx="232.527" cy="492.018" r="4.76043" fill="white"/>
<circle cx="102.408" cy="515.821" r="7.93406" fill="white"/>
<circle cx="340.43" cy="558.664" r="7.93406" fill="white"/>
<circle cx="215.072" cy="788.752" r="7.93406" fill="white"/>
<circle cx="1041.8" cy="569.772" r="12.6945" fill="white"/>
<circle cx="1130.66" cy="777.644" r="12.6945" fill="white"/>
<circle cx="1327.43" cy="672.915" r="12.6945" fill="white"/>
<circle cx="1162.4" cy="664.981" r="4.76043" fill="white"/>
<circle cx="1349.64" cy="533.276" r="4.76043" fill="white"/>
<circle cx="1219.52" cy="557.078" r="7.93406" fill="white"/>
</g>
</g>
<defs>
<clipPath id="clip0_21_20">
<rect width="1440" height="800" fill="white"/>
</clipPath>
</defs>
</svg>
