<svg width="977" height="977" viewBox="0 0 977 977" fill="none" xmlns="http://www.w3.org/2000/svg">
<path d="M7 465.063C7 615.306 81.6136 748.779 197.2 833.166C237.058 862.265 132.471 967.328 132.471 967.328C132.471 967.328 969 1063.74 969 465.063C969 209.91 753.69 3 488 3C222.31 3 7 209.91 7 465.063Z" fill="#F22E2F"/>
<path d="M327.613 706.126C296.525 706.126 276.596 690.351 276.596 671.743V644.176C287.756 644.176 308.801 642.491 314.7 641.955C336.94 640.27 355.673 627.329 355.673 598.077V310.378H377.993C413.148 310.378 434.272 328.374 434.272 362.757V605.428C434.272 669.063 389.153 706.203 327.613 706.203V706.126ZM396.806 281.05C371.616 281.05 350.492 260.757 350.492 236.559C350.492 212.36 371.616 192.68 396.806 192.68C421.996 192.68 441.924 212.36 441.924 236.559C441.924 260.757 421.996 281.05 396.806 281.05Z" fill="white"/>
<path d="M613.551 614.311C555.519 614.311 512.154 585.594 512.154 554.657V520.275H515.103C532.082 535.513 572.578 548.991 610.044 548.991C647.51 548.991 667.518 538.27 667.518 515.757C667.518 498.297 656.358 489.874 601.913 482.522C535.112 473.486 502.907 448.14 502.907 402.04C502.907 345.144 556.236 296.748 637.147 296.748C708.651 296.748 737.986 332.203 737.986 361.531V390.248H735.037C718.615 374.473 682.265 362.067 644.719 362.067C596.651 362.067 581.426 376.158 581.426 395.838C581.426 411.076 590.832 417.203 644.719 425.703C710.325 435.887 745.559 463.455 745.559 511.851C745.559 576.022 698.687 614.311 613.711 614.311H613.551Z" fill="white"/>
</svg>
